<svg viewBox="0 0 40 40" fill="none" xmlns="http://www.w3.org/2000/svg">
<g clip-path="url(#clip0_1561_33366)">
<path d="M35.8418 16.8316V10.495C35.8418 8.7524 34.4161 7.32666 32.6735 7.32666H7.327C5.58443 7.32666 4.17453 8.7524 4.17453 10.495V16.8316C5.91711 16.8316 7.327 18.2573 7.327 19.9999C7.327 21.7425 5.91711 23.1682 4.15869 23.1682V29.5048C4.15869 31.2474 5.58443 32.6732 7.327 32.6732H32.6735C34.4161 32.6732 35.8418 31.2474 35.8418 29.5048V23.1682C34.0992 23.1682 32.6735 21.7425 32.6735 19.9999C32.6735 18.2573 34.0992 16.8316 35.8418 16.8316ZM32.6735 14.5187C30.7884 15.6118 29.5052 17.6712 29.5052 19.9999C29.5052 22.3286 30.7884 24.388 32.6735 25.4811V29.5048H7.327V25.4811C9.21215 24.388 10.4953 22.3286 10.4953 19.9999C10.4953 17.6554 9.22799 15.6118 7.34285 14.5187L7.327 10.495H32.6735V14.5187ZM15.3587 26.3365L20.0003 23.3583L24.6418 26.3365L23.2319 21.0138L27.4933 17.5286L21.9963 17.196L20.0003 12.0791L17.9884 17.1801L12.4914 17.5128L16.7527 20.9979L15.3587 26.3365Z" fill="#242424"/>
</g>
<defs>
<clipPath id="clip0_1561_33366">
<rect width="38.0198" height="38.0198" fill="white" transform="translate(0.990234 0.990234)"/>
</clipPath>
</defs>
</svg>
