<svg viewBox="0 0 39 40" fill="none" xmlns="http://www.w3.org/2000/svg">
<g clip-path="url(#clip0_1561_33379)">
<path d="M33.9272 31.9921L31.6667 34.2543L21.4615 24.0492L23.7269 21.787L33.9272 31.9921ZM21.4441 5.74268C17.357 5.74268 13.2699 7.29515 10.1332 10.4159L10.1174 10.4318C3.85996 16.6892 3.85996 26.8436 10.1174 33.1011L32.7708 10.4318C29.65 7.31099 25.5471 5.74268 21.4441 5.74268ZM10.3867 28.3486C9.21441 26.3842 8.58075 24.1347 8.58075 21.7743C8.58075 20.3011 8.83421 18.8912 9.30946 17.5446C9.61045 20.5704 10.7194 23.5486 12.5887 26.1625L10.3867 28.3486ZM14.8857 23.8496C12.7471 20.6021 11.9392 16.7209 12.6996 13.0298C13.6184 12.8397 14.5372 12.7446 15.4718 12.7446C18.3233 12.7446 21.0956 13.6159 23.5193 15.2159L14.8857 23.8496ZM17.2144 9.6397C18.5609 9.16445 19.9708 8.91099 21.4441 8.91099C23.8045 8.91099 26.054 9.54465 28.0183 10.7169L25.8164 12.9189C23.2025 11.0496 20.2401 9.94069 17.2144 9.6397Z" fill="#242424"/>
</g>
<defs>
<clipPath id="clip0_1561_33379">
<rect width="38.0198" height="38.0198" fill="white" transform="translate(0.660156 0.990234)"/>
</clipPath>
</defs>
</svg>
