<svg width="14" height="14" viewBox="0 0 14 14" fill="none" xmlns="http://www.w3.org/2000/svg">
<g id="Group 1">
<path id="Vector" d="M10.8751 7C10.8757 7.91189 10.5545 8.79475 9.96803 9.49303C9.38155 10.1913 8.56746 10.6602 7.66917 10.8171C6.77088 10.974 5.84603 10.8089 5.05755 10.3508C4.26907 9.89271 3.66756 9.17105 3.35898 8.31295L1.14258 10.0861C1.83175 11.3961 2.94001 12.4375 4.2904 13.0439C5.64078 13.6503 7.1554 13.7868 8.59243 13.4315C10.0295 13.0762 11.306 12.2497 12.2182 11.0839C13.1305 9.91813 13.6258 8.48029 13.6251 7" fill="#00AC47"/>
<path id="Vector_2" d="M10.8748 7C10.8743 7.6165 10.7265 8.22396 10.4437 8.77177C10.1609 9.31958 9.75131 9.79189 9.24902 10.1494L11.4402 11.9023C12.1273 11.2837 12.6768 10.5276 13.0531 9.68316C13.4295 8.83866 13.6242 7.92455 13.6248 7" fill="#4285F4"/>
<path id="Vector_3" d="M3.125 7.00011C3.12596 6.55219 3.2051 6.10787 3.35885 5.68716L1.14245 3.91406C0.638491 4.86465 0.375 5.9242 0.375 7.00011C0.375 8.07603 0.638491 9.13557 1.14245 10.0862L3.35885 8.31306C3.2051 7.89235 3.12596 7.44804 3.125 7.00011Z" fill="#FFBA00"/>
<path id="Vector_4" d="M7.00013 3.125C7.82006 3.12523 8.6185 3.38726 9.27913 3.8729L11.3091 1.97825C10.5556 1.32853 9.665 0.857385 8.70389 0.599966C7.74278 0.342548 6.73595 0.305507 5.75852 0.491608C4.78109 0.677708 3.85832 1.08215 3.05905 1.67474C2.25978 2.26733 1.60466 3.03278 1.14258 3.91395L3.35898 5.68705C3.62929 4.93774 4.12379 4.28984 4.77525 3.83145C5.42672 3.37305 6.20355 3.12639 7.00013 3.125Z" fill="#EA4435"/>
<path id="Vector_5" d="M13.625 6.5V7L12.5 8.75H7.25V6H13.125C13.2576 6 13.3848 6.05268 13.4786 6.14645C13.5723 6.24021 13.625 6.36739 13.625 6.5Z" fill="#4285F4"/>
</g>
</svg>
