<svg  viewBox="0 0 47 46" fill="none" xmlns="http://www.w3.org/2000/svg">
<path d="M23.6462 3.95264C13.132 3.95264 4.61768 12.486 4.61768 23.0003C4.61768 33.5145 13.132 42.0479 23.6462 42.0479C34.1796 42.0479 42.7129 33.5145 42.7129 23.0003C42.7129 12.486 34.1796 3.95264 23.6462 3.95264ZM23.6653 38.2383C15.2462 38.2383 8.4272 31.4193 8.4272 23.0003C8.4272 14.5812 15.2462 7.76216 23.6653 7.76216C32.0843 7.76216 38.9034 14.5812 38.9034 23.0003C38.9034 31.4193 32.0843 38.2383 23.6653 38.2383ZM30.332 21.0955C31.9129 21.0955 33.1891 19.8193 33.1891 18.2383C33.1891 16.6574 31.9129 15.3812 30.332 15.3812C28.751 15.3812 27.4748 16.6574 27.4748 18.2383C27.4748 19.8193 28.751 21.0955 30.332 21.0955ZM16.9986 21.0955C18.5796 21.0955 19.8558 19.8193 19.8558 18.2383C19.8558 16.6574 18.5796 15.3812 16.9986 15.3812C15.4177 15.3812 14.1415 16.6574 14.1415 18.2383C14.1415 19.8193 15.4177 21.0955 16.9986 21.0955ZM23.6653 33.4764C28.1034 33.4764 31.8748 30.6955 33.3986 26.8098H13.932C15.4558 30.6955 19.2272 33.4764 23.6653 33.4764Z" fill="#1D1D1D"/>
</svg>
