<svg viewBox="0 0 22 14" fill="none" xmlns="http://www.w3.org/2000/svg">
<g clip-path="url(#clip0_1561_55633)">
<path d="M10.2908 13.207C10.4783 13.3945 10.7326 13.4998 10.9978 13.4998C11.263 13.4998 11.5173 13.3945 11.7048 13.207L18.0688 6.843C18.2465 6.65355 18.3434 6.40241 18.3392 6.14273C18.335 5.88305 18.2299 5.63519 18.0462 5.45161C17.8625 5.26803 17.6146 5.16312 17.3549 5.15909C17.0952 5.15505 16.8441 5.25221 16.6548 5.43L10.9978 11.086L5.34081 5.429C5.24856 5.33349 5.13821 5.25731 5.01621 5.2049C4.89421 5.15249 4.76299 5.1249 4.63021 5.12375C4.49743 5.1226 4.36575 5.1479 4.24285 5.19818C4.11996 5.24846 4.0083 5.32271 3.91441 5.4166C3.82052 5.5105 3.74627 5.62215 3.69598 5.74505C3.6457 5.86794 3.6204 5.99962 3.62155 6.1324C3.62271 6.26518 3.65029 6.3964 3.7027 6.5184C3.75511 6.64041 3.8313 6.75075 3.92681 6.843L10.2908 13.207ZM9.99781 0.5L9.99781 12.5L11.9978 12.5L11.9978 0.5L9.99781 0.5Z" fill="#1DD694" />
</g>
<defs>
<clipPath id="clip0_1561_55633">
<rect width="13" height="21.9963" fill="white" transform="translate(21.998 0.5) rotate(90)"/>
</clipPath>
</defs>
</svg>
