<svg viewBox="0 0 40 40" fill="none" xmlns="http://www.w3.org/2000/svg">
<g clip-path="url(#clip0_1561_33346)">
<path fill-rule="evenodd" clip-rule="evenodd" d="M31.8861 6.53493L29.5099 4.15869L27.1337 6.53493L24.7574 4.15869L22.3812 6.53493L20.005 4.15869L17.6287 6.53493L15.2525 4.15869L12.8763 6.53493L10.5 4.15869V26.3369H5.74756V31.0893C5.74756 33.719 7.87033 35.8418 10.5 35.8418H29.5099C32.1396 35.8418 34.2624 33.719 34.2624 31.0893V4.15869L31.8861 6.53493ZM10.5 32.6735C9.62874 32.6735 8.91587 31.9606 8.91587 31.0893V29.5052H24.7574V32.6735H10.5ZM31.0941 31.0893C31.0941 31.9606 30.3812 32.6735 29.5099 32.6735C28.6386 32.6735 27.9257 31.9606 27.9257 31.0893V26.3369H13.6683V8.91116H31.0941V31.0893ZM15.2525 12.0795V15.2478H24.7574V12.0795H15.2525ZM26.3416 12.0795H29.5099V15.2478H26.3416V12.0795ZM15.2525 16.8319V20.0003H24.7574V16.8319H15.2525ZM26.3416 16.8319H29.5099V20.0003H26.3416V16.8319Z" fill="#1D1D1D"/>
</g>
<defs>
<clipPath id="clip0_1561_33346">
<rect width="38.0198" height="38.0198" fill="white" transform="translate(0.995117 0.990234)"/>
</clipPath>
</defs>
</svg>
